<?xml version="1.0" encoding="UTF-8" standalone="no"?>
<!-- Created with Inkscape (http://www.inkscape.org/) -->

<svg
   xmlns:dc="http://purl.org/dc/elements/1.1/"
   xmlns:cc="http://creativecommons.org/ns#"
   xmlns:rdf="http://www.w3.org/1999/02/22-rdf-syntax-ns#"
   xmlns:svg="http://www.w3.org/2000/svg"
   xmlns="http://www.w3.org/2000/svg"
   xmlns:sodipodi="http://sodipodi.sourceforge.net/DTD/sodipodi-0.dtd"
   xmlns:inkscape="http://www.inkscape.org/namespaces/inkscape"
   id="svg5585"
   version="1.1"
   inkscape:version="0.91 r13725"
   width="745"
   height="745"
   viewBox="0 0 745 745"
   sodipodi:docname="wifi.svg">
  <metadata
     id="metadata5591">
    <rdf:RDF>
      <cc:Work
         rdf:about="">
        <dc:format>image/svg+xml</dc:format>
        <dc:type
           rdf:resource="http://purl.org/dc/dcmitype/StillImage" />
        <dc:title></dc:title>
      </cc:Work>
    </rdf:RDF>
  </metadata>
  <defs
     id="defs5589" />
  <sodipodi:namedview
     pagecolor="#ffffff"
     bordercolor="#666666"
     borderopacity="1"
     objecttolerance="10"
     gridtolerance="10"
     guidetolerance="10"
     inkscape:pageopacity="0"
     inkscape:pageshadow="2"
     inkscape:window-width="1280"
     inkscape:window-height="1426"
     id="namedview5587"
     showgrid="false"
     fit-margin-top="0"
     fit-margin-left="0"
     fit-margin-right="0"
     fit-margin-bottom="0"
     inkscape:zoom="0.66245614"
     inkscape:cx="163.16635"
     inkscape:cy="353.35232"
     inkscape:window-x="1440"
     inkscape:window-y="14"
     inkscape:window-maximized="0"
     inkscape:current-layer="svg5585" />
  <path
     style="fill:#000000;fill-opacity:1"
     d="M 334.5153,714.58352 C 210.1431,705.16822 100.5785,659.63751 13.774073,581.29617 L 0.31743333,569.15151 2.5660633,565.95791 c 9.9417797,-14.11969 49.2524897,-69.55347 49.6154897,-69.965 0.25295,-0.28678 7.35028,6.21333 15.77183,14.4447 61.986887,60.58697 150.600237,99.37789 252.811917,110.6696 19.78074,2.18526 88.93996,2.2059 107.5,0.0321 107.55125,-12.59675 198.23901,-53.53819 259.0856,-116.96547 l 10.3356,-10.77396 7.89515,12.18223 c 4.34232,6.70023 14.76702,22.75823 23.16597,35.68444 8.39895,12.92621 15.56014,24.25619 15.91376,25.17771 0.38648,1.00714 -4.54506,6.3601 -12.3628,13.41925 -84.8548,76.62095 -189.72717,122.03253 -308.40828,133.54618 -18.7242,1.8165 -71.69549,2.5122 -89.375,1.17381 z m 8.125,-194.46935 c -27.59444,-1.96756 -64.30279,-8.36122 -89.30114,-15.554 C 201.0802,489.52371 149.45567,461.56703 114.19472,429.20808 l -8.88267,-8.15162 4.70985,-6.64608 c 2.59041,-3.65534 14.41516,-20.32226 26.27721,-37.03762 l 21.56738,-30.39157 12.12276,11.7634 c 38.38836,37.25043 91.48086,62.12914 152.65105,71.531 17.82002,2.73894 59.38171,3.81201 77.78296,2.00823 60.43134,-5.92374 114.299,-26.37245 154.71705,-58.73216 9.94976,-7.96605 29.51315,-27.21238 34.47384,-33.91516 2.00814,-2.71338 4.0562,-4.80713 4.55124,-4.65279 0.49504,0.15433 12.13177,17.57836 25.85941,38.72005 l 24.95931,38.43943 -8.35941,8.30227 c -52.30852,51.95092 -128.00207,86.38877 -213.9844,97.35524 -14.9769,1.91021 -65.26161,3.36436 -80,2.31347 z m 17.5,-196.22189 c -2.40625,-0.29191 -9.15625,-1.11385 -15,-1.82652 -23.60894,-2.87923 -56.12731,-12.90884 -78.68519,-24.2688 -15.48299,-7.79711 -37.5184,-22.20846 -49.87301,-32.61739 -0.45386,-0.38239 41.48579,-60.08832 43.991,-62.6263 1.09691,-1.11125 4.13561,0.3323 12.6922,6.02951 63.32541,42.16374 146.81026,42.70918 211.25,1.38015 4.8125,-3.08654 11.18176,-7.58715 14.15391,-10.00135 2.97215,-2.41419 5.83253,-3.8962 6.35636,-3.29335 1.67804,1.93113 40.27599,61.93682 40.92053,63.61646 1.40809,3.66943 -28.98757,25.33808 -51.4308,36.66433 -35.2352,17.78188 -68.91714,26.14825 -108.75,27.01279 -11.6875,0.25367 -23.21875,0.22238 -25.625,-0.0695 z m 14.93825,-171.82965 c -27.40461,-4.03265 -48.24295,-24.83653 -52.52558,-52.438725 -4.5719,-29.466588 14.74244,-59.482205 43.7517,-67.99276 8.26268,-2.424049 24.69738,-2.567625 33.21063,-0.290133 20.90595,5.592823 38.35835,22.994108 43.88734,43.758803 2.0039,7.52582 2.20988,22.85101 0.41198,30.649785 -3.26082,14.14444 -14.07361,28.88468 -27.62892,37.66433 -11.2349,7.27675 -27.36628,10.67069 -41.10715,8.6487 z"
     id="path6145"
     inkscape:connector-curvature="0" />
</svg>
