<?xml version="1.0" encoding="utf-8" standalone="no"?>
<!DOCTYPE svg PUBLIC "-//W3C//DTD SVG 1.1//EN"
  "http://www.w3.org/Graphics/SVG/1.1/DTD/svg11.dtd">
<!-- Created with matplotlib (http://matplotlib.sourceforge.net/) -->
<svg height="435pt" version="1.1" viewBox="0 0 590 435" width="590pt" xmlns="http://www.w3.org/2000/svg" xmlns:xlink="http://www.w3.org/1999/xlink">
 <defs>
  <style type="text/css">
*{stroke-linecap:square;stroke-linejoin:round;}
  </style>
 </defs>
 <g id="figure_1">
  <g id="patch_1">
   <path d="
M0 435.6
L590.269 435.6
L590.269 0
L0 0
z
" style="fill:#ffffff;"/>
  </g>
  <g id="axes_1">
   <g id="patch_2">
    <path d="
M45.4331 387.36
L491.833 387.36
L491.833 41.76
L45.4331 41.76
z
" style="fill:#ffffff;"/>
   </g>
   <g id="line2d_1">
    <path clip-path="url(#p9e4b435858)" d="
M45.4331 387.36
L122.313 387.36
L122.809 386.212
L125.289 386.212
L125.785 385.064
L126.777 385.064
L127.273 382.767
L128.761 382.767
L129.257 380.471
L129.753 377.026
L130.745 377.026
L131.241 373.582
L131.737 371.286
L132.233 370.137
L132.729 365.545
L133.225 364.397
L133.721 359.804
L134.217 358.656
L134.713 354.063
L135.705 351.767
L136.201 348.322
L136.697 346.026
L137.193 344.878
L137.689 342.581
L138.185 337.989
L138.681 337.989
L139.177 336.84
L139.673 328.803
L140.169 326.507
L140.665 323.062
L141.161 318.47
L141.657 309.284
L143.641 287.469
L144.137 286.321
L144.633 284.024
L145.129 275.987
L145.625 270.246
L146.121 266.802
L146.617 265.654
L147.113 262.209
L147.609 257.616
L148.105 249.579
L148.601 244.987
L149.097 238.098
L149.593 236.949
L150.585 232.357
L151.081 225.468
L152.569 211.69
L153.561 211.69
L154.057 210.541
L154.553 207.097
L155.545 196.763
L156.041 193.319
L157.529 186.43
L158.025 185.282
L158.521 181.837
L159.017 174.948
L160.009 165.763
L160.505 157.725
L161.001 155.429
L161.993 148.54
L162.489 148.54
L163.977 145.096
L164.473 142.799
L164.969 142.799
L165.465 141.651
L165.961 137.058
L166.457 135.91
L167.449 131.317
L168.441 129.021
L168.937 126.725
L169.433 125.577
L170.425 120.984
L170.921 119.836
L171.913 119.836
L172.905 117.539
L173.401 117.539
L173.897 115.243
L174.393 115.243
L174.889 111.799
L175.385 110.65
L175.881 110.65
L176.873 106.058
L177.865 103.761
L178.361 103.761
L178.857 102.613
L179.353 102.613
L179.849 99.1686
L180.345 96.8723
L180.841 96.8723
L181.337 95.7241
L182.329 95.7241
L182.825 93.4278
L190.265 93.4278
L190.761 91.1314
L191.753 91.1314
L192.249 89.9833
L192.745 89.9833
L193.241 88.8351
L196.217 88.8351
L196.713 87.6869
L197.705 87.6869
L198.201 86.5387
L198.697 86.5387
L199.193 85.3906
L199.689 85.3906
L200.185 84.2424
L202.665 84.2424
L203.161 83.0942
L204.153 83.0942
L204.649 81.946
L207.129 81.946
L208.617 78.5015
L209.609 78.5015
L210.105 77.3534
L211.097 77.3534
L211.593 76.2052
L212.089 76.2052
L212.585 75.057
L213.081 75.057
L213.577 73.9088
L219.033 73.9088
L219.529 72.7607
L220.521 72.7607
L221.017 71.6125
L224.985 71.6125
L225.481 70.4643
L225.977 70.4643
L227.465 67.0198
L229.945 67.0198
L230.441 65.8716
L234.905 65.8716
L235.401 64.7235
L237.385 64.7235
L237.881 63.5753
L243.337 63.5753
L243.833 62.4271
L246.313 62.4271
L247.305 60.1308
L253.257 60.1308
L253.753 58.9826
L257.225 58.9826
L257.721 57.8344
L263.177 57.8344
L263.673 56.6862
L267.641 56.6862
L268.137 55.5381
L270.121 55.5381
L270.617 54.3899
L276.073 54.3899
L277.065 52.0936
L282.521 52.0936
L283.017 50.9454
L294.425 50.9454
L294.921 49.7972
L303.353 49.7972
L303.849 48.649
L309.801 48.649
L310.297 47.5009
L332.121 47.5009
L332.617 46.3527
L345.513 46.3527
L346.009 45.2045
L352.457 45.2045
L352.953 44.0563
L381.225 44.0563
L381.721 42.9082
L471.993 42.9082
L471.993 42.9082" style="fill:none;stroke:#0000ff;"/>
   </g>
   <g id="matplotlib.axis_1">
    <g id="xtick_1">
     <g id="line2d_2">
      <defs>
       <path d="
M0 0
L0 -4" id="m0012dd4eef" style="stroke:#000000;stroke-linecap:butt;stroke-width:0.5;"/>
      </defs>
      <g>
       <use style="stroke:#000000;stroke-linecap:butt;stroke-width:0.5;" x="45.433125" xlink:href="#m0012dd4eef" y="387.36"/>
      </g>
     </g>
     <g id="line2d_3">
      <defs>
       <path d="
M0 0
L0 4" id="m476344969c" style="stroke:#000000;stroke-linecap:butt;stroke-width:0.5;"/>
      </defs>
      <g>
       <use style="stroke:#000000;stroke-linecap:butt;stroke-width:0.5;" x="45.433125" xlink:href="#m476344969c" y="41.76"/>
      </g>
     </g>
     <g id="text_1">
      <!-- 0 -->
      <defs>
       <path d="
M31.7812 66.4062
Q24.1719 66.4062 20.3281 58.9062
Q16.5 51.4219 16.5 36.375
Q16.5 21.3906 20.3281 13.8906
Q24.1719 6.39062 31.7812 6.39062
Q39.4531 6.39062 43.2812 13.8906
Q47.125 21.3906 47.125 36.375
Q47.125 51.4219 43.2812 58.9062
Q39.4531 66.4062 31.7812 66.4062
M31.7812 74.2188
Q44.0469 74.2188 50.5156 64.5156
Q56.9844 54.8281 56.9844 36.375
Q56.9844 17.9688 50.5156 8.26562
Q44.0469 -1.42188 31.7812 -1.42188
Q19.5312 -1.42188 13.0625 8.26562
Q6.59375 17.9688 6.59375 36.375
Q6.59375 54.8281 13.0625 64.5156
Q19.5312 74.2188 31.7812 74.2188" id="DejaVuSans-30"/>
      </defs>
      <g transform="translate(42.4096875 400.26625)scale(0.12 -0.12)">
       <use xlink:href="#DejaVuSans-30"/>
      </g>
     </g>
    </g>
    <g id="xtick_2">
     <g id="line2d_4">
      <g>
       <use style="stroke:#000000;stroke-linecap:butt;stroke-width:0.5;" x="95.033125" xlink:href="#m0012dd4eef" y="387.36"/>
      </g>
     </g>
     <g id="line2d_5">
      <g>
       <use style="stroke:#000000;stroke-linecap:butt;stroke-width:0.5;" x="95.033125" xlink:href="#m476344969c" y="41.76"/>
      </g>
     </g>
     <g id="text_2">
      <!-- 10 -->
      <defs>
       <path d="
M12.4062 8.29688
L28.5156 8.29688
L28.5156 63.9219
L10.9844 60.4062
L10.9844 69.3906
L28.4219 72.9062
L38.2812 72.9062
L38.2812 8.29688
L54.3906 8.29688
L54.3906 0
L12.4062 0
z
" id="DejaVuSans-31"/>
      </defs>
      <g transform="translate(88.455625 400.26625)scale(0.12 -0.12)">
       <use xlink:href="#DejaVuSans-31"/>
       <use x="63.623046875" xlink:href="#DejaVuSans-30"/>
      </g>
     </g>
    </g>
    <g id="xtick_3">
     <g id="line2d_6">
      <g>
       <use style="stroke:#000000;stroke-linecap:butt;stroke-width:0.5;" x="144.633125" xlink:href="#m0012dd4eef" y="387.36"/>
      </g>
     </g>
     <g id="line2d_7">
      <g>
       <use style="stroke:#000000;stroke-linecap:butt;stroke-width:0.5;" x="144.633125" xlink:href="#m476344969c" y="41.76"/>
      </g>
     </g>
     <g id="text_3">
      <!-- 20 -->
      <defs>
       <path d="
M19.1875 8.29688
L53.6094 8.29688
L53.6094 0
L7.32812 0
L7.32812 8.29688
Q12.9375 14.1094 22.625 23.8906
Q32.3281 33.6875 34.8125 36.5312
Q39.5469 41.8438 41.4219 45.5312
Q43.3125 49.2188 43.3125 52.7812
Q43.3125 58.5938 39.2344 62.25
Q35.1562 65.9219 28.6094 65.9219
Q23.9688 65.9219 18.8125 64.3125
Q13.6719 62.7031 7.8125 59.4219
L7.8125 69.3906
Q13.7656 71.7812 18.9375 73
Q24.125 74.2188 28.4219 74.2188
Q39.75 74.2188 46.4844 68.5469
Q53.2188 62.8906 53.2188 53.4219
Q53.2188 48.9219 51.5312 44.8906
Q49.8594 40.875 45.4062 35.4062
Q44.1875 33.9844 37.6406 27.2188
Q31.1094 20.4531 19.1875 8.29688" id="DejaVuSans-32"/>
      </defs>
      <g transform="translate(137.83625 400.26625)scale(0.12 -0.12)">
       <use xlink:href="#DejaVuSans-32"/>
       <use x="63.623046875" xlink:href="#DejaVuSans-30"/>
      </g>
     </g>
    </g>
    <g id="xtick_4">
     <g id="line2d_8">
      <g>
       <use style="stroke:#000000;stroke-linecap:butt;stroke-width:0.5;" x="194.233125" xlink:href="#m0012dd4eef" y="387.36"/>
      </g>
     </g>
     <g id="line2d_9">
      <g>
       <use style="stroke:#000000;stroke-linecap:butt;stroke-width:0.5;" x="194.233125" xlink:href="#m476344969c" y="41.76"/>
      </g>
     </g>
     <g id="text_4">
      <!-- 30 -->
      <defs>
       <path d="
M40.5781 39.3125
Q47.6562 37.7969 51.625 33
Q55.6094 28.2188 55.6094 21.1875
Q55.6094 10.4062 48.1875 4.48438
Q40.7656 -1.42188 27.0938 -1.42188
Q22.5156 -1.42188 17.6562 -0.515625
Q12.7969 0.390625 7.625 2.20312
L7.625 11.7188
Q11.7188 9.32812 16.5938 8.10938
Q21.4844 6.89062 26.8125 6.89062
Q36.0781 6.89062 40.9375 10.5469
Q45.7969 14.2031 45.7969 21.1875
Q45.7969 27.6406 41.2812 31.2656
Q36.7656 34.9062 28.7188 34.9062
L20.2188 34.9062
L20.2188 43.0156
L29.1094 43.0156
Q36.375 43.0156 40.2344 45.9219
Q44.0938 48.8281 44.0938 54.2969
Q44.0938 59.9062 40.1094 62.9062
Q36.1406 65.9219 28.7188 65.9219
Q24.6562 65.9219 20.0156 65.0312
Q15.375 64.1562 9.8125 62.3125
L9.8125 71.0938
Q15.4375 72.6562 20.3438 73.4375
Q25.25 74.2188 29.5938 74.2188
Q40.8281 74.2188 47.3594 69.1094
Q53.9062 64.0156 53.9062 55.3281
Q53.9062 49.2656 50.4375 45.0938
Q46.9688 40.9219 40.5781 39.3125" id="DejaVuSans-33"/>
      </defs>
      <g transform="translate(187.4540625 400.26625)scale(0.12 -0.12)">
       <use xlink:href="#DejaVuSans-33"/>
       <use x="63.623046875" xlink:href="#DejaVuSans-30"/>
      </g>
     </g>
    </g>
    <g id="xtick_5">
     <g id="line2d_10">
      <g>
       <use style="stroke:#000000;stroke-linecap:butt;stroke-width:0.5;" x="243.833125" xlink:href="#m0012dd4eef" y="387.36"/>
      </g>
     </g>
     <g id="line2d_11">
      <g>
       <use style="stroke:#000000;stroke-linecap:butt;stroke-width:0.5;" x="243.833125" xlink:href="#m476344969c" y="41.76"/>
      </g>
     </g>
     <g id="text_5">
      <!-- 40 -->
      <defs>
       <path d="
M37.7969 64.3125
L12.8906 25.3906
L37.7969 25.3906
z

M35.2031 72.9062
L47.6094 72.9062
L47.6094 25.3906
L58.0156 25.3906
L58.0156 17.1875
L47.6094 17.1875
L47.6094 0
L37.7969 0
L37.7969 17.1875
L4.89062 17.1875
L4.89062 26.7031
z
" id="DejaVuSans-34"/>
      </defs>
      <g transform="translate(236.89 400.26625)scale(0.12 -0.12)">
       <use xlink:href="#DejaVuSans-34"/>
       <use x="63.623046875" xlink:href="#DejaVuSans-30"/>
      </g>
     </g>
    </g>
    <g id="xtick_6">
     <g id="line2d_12">
      <g>
       <use style="stroke:#000000;stroke-linecap:butt;stroke-width:0.5;" x="293.433125" xlink:href="#m0012dd4eef" y="387.36"/>
      </g>
     </g>
     <g id="line2d_13">
      <g>
       <use style="stroke:#000000;stroke-linecap:butt;stroke-width:0.5;" x="293.433125" xlink:href="#m476344969c" y="41.76"/>
      </g>
     </g>
     <g id="text_6">
      <!-- 50 -->
      <defs>
       <path d="
M10.7969 72.9062
L49.5156 72.9062
L49.5156 64.5938
L19.8281 64.5938
L19.8281 46.7344
Q21.9688 47.4688 24.1094 47.8281
Q26.2656 48.1875 28.4219 48.1875
Q40.625 48.1875 47.75 41.5
Q54.8906 34.8125 54.8906 23.3906
Q54.8906 11.625 47.5625 5.09375
Q40.2344 -1.42188 26.9062 -1.42188
Q22.3125 -1.42188 17.5469 -0.640625
Q12.7969 0.140625 7.71875 1.70312
L7.71875 11.625
Q12.1094 9.23438 16.7969 8.0625
Q21.4844 6.89062 26.7031 6.89062
Q35.1562 6.89062 40.0781 11.3281
Q45.0156 15.7656 45.0156 23.3906
Q45.0156 31 40.0781 35.4375
Q35.1562 39.8906 26.7031 39.8906
Q22.75 39.8906 18.8125 39.0156
Q14.8906 38.1406 10.7969 36.2812
z
" id="DejaVuSans-35"/>
      </defs>
      <g transform="translate(286.6596875 400.26625)scale(0.12 -0.12)">
       <use xlink:href="#DejaVuSans-35"/>
       <use x="63.623046875" xlink:href="#DejaVuSans-30"/>
      </g>
     </g>
    </g>
    <g id="xtick_7">
     <g id="line2d_14">
      <g>
       <use style="stroke:#000000;stroke-linecap:butt;stroke-width:0.5;" x="343.033125" xlink:href="#m0012dd4eef" y="387.36"/>
      </g>
     </g>
     <g id="line2d_15">
      <g>
       <use style="stroke:#000000;stroke-linecap:butt;stroke-width:0.5;" x="343.033125" xlink:href="#m476344969c" y="41.76"/>
      </g>
     </g>
     <g id="text_7">
      <!-- 60 -->
      <defs>
       <path d="
M33.0156 40.375
Q26.375 40.375 22.4844 35.8281
Q18.6094 31.2969 18.6094 23.3906
Q18.6094 15.5312 22.4844 10.9531
Q26.375 6.39062 33.0156 6.39062
Q39.6562 6.39062 43.5312 10.9531
Q47.4062 15.5312 47.4062 23.3906
Q47.4062 31.2969 43.5312 35.8281
Q39.6562 40.375 33.0156 40.375
M52.5938 71.2969
L52.5938 62.3125
Q48.875 64.0625 45.0938 64.9844
Q41.3125 65.9219 37.5938 65.9219
Q27.8281 65.9219 22.6719 59.3281
Q17.5312 52.7344 16.7969 39.4062
Q19.6719 43.6562 24.0156 45.9219
Q28.375 48.1875 33.5938 48.1875
Q44.5781 48.1875 50.9531 41.5156
Q57.3281 34.8594 57.3281 23.3906
Q57.3281 12.1562 50.6875 5.35938
Q44.0469 -1.42188 33.0156 -1.42188
Q20.3594 -1.42188 13.6719 8.26562
Q6.98438 17.9688 6.98438 36.375
Q6.98438 53.6562 15.1875 63.9375
Q23.3906 74.2188 37.2031 74.2188
Q40.9219 74.2188 44.7031 73.4844
Q48.4844 72.75 52.5938 71.2969" id="DejaVuSans-36"/>
      </defs>
      <g transform="translate(336.215625 400.26625)scale(0.12 -0.12)">
       <use xlink:href="#DejaVuSans-36"/>
       <use x="63.623046875" xlink:href="#DejaVuSans-30"/>
      </g>
     </g>
    </g>
    <g id="xtick_8">
     <g id="line2d_16">
      <g>
       <use style="stroke:#000000;stroke-linecap:butt;stroke-width:0.5;" x="392.633125" xlink:href="#m0012dd4eef" y="387.36"/>
      </g>
     </g>
     <g id="line2d_17">
      <g>
       <use style="stroke:#000000;stroke-linecap:butt;stroke-width:0.5;" x="392.633125" xlink:href="#m476344969c" y="41.76"/>
      </g>
     </g>
     <g id="text_8">
      <!-- 70 -->
      <defs>
       <path d="
M8.20312 72.9062
L55.0781 72.9062
L55.0781 68.7031
L28.6094 0
L18.3125 0
L43.2188 64.5938
L8.20312 64.5938
z
" id="DejaVuSans-37"/>
      </defs>
      <g transform="translate(385.88875 400.26625)scale(0.12 -0.12)">
       <use xlink:href="#DejaVuSans-37"/>
       <use x="63.623046875" xlink:href="#DejaVuSans-30"/>
      </g>
     </g>
    </g>
    <g id="xtick_9">
     <g id="line2d_18">
      <g>
       <use style="stroke:#000000;stroke-linecap:butt;stroke-width:0.5;" x="442.233125" xlink:href="#m0012dd4eef" y="387.36"/>
      </g>
     </g>
     <g id="line2d_19">
      <g>
       <use style="stroke:#000000;stroke-linecap:butt;stroke-width:0.5;" x="442.233125" xlink:href="#m476344969c" y="41.76"/>
      </g>
     </g>
     <g id="text_9">
      <!-- 80 -->
      <defs>
       <path d="
M31.7812 34.625
Q24.75 34.625 20.7188 30.8594
Q16.7031 27.0938 16.7031 20.5156
Q16.7031 13.9219 20.7188 10.1562
Q24.75 6.39062 31.7812 6.39062
Q38.8125 6.39062 42.8594 10.1719
Q46.9219 13.9688 46.9219 20.5156
Q46.9219 27.0938 42.8906 30.8594
Q38.875 34.625 31.7812 34.625
M21.9219 38.8125
Q15.5781 40.375 12.0312 44.7188
Q8.5 49.0781 8.5 55.3281
Q8.5 64.0625 14.7188 69.1406
Q20.9531 74.2188 31.7812 74.2188
Q42.6719 74.2188 48.875 69.1406
Q55.0781 64.0625 55.0781 55.3281
Q55.0781 49.0781 51.5312 44.7188
Q48 40.375 41.7031 38.8125
Q48.8281 37.1562 52.7969 32.3125
Q56.7812 27.4844 56.7812 20.5156
Q56.7812 9.90625 50.3125 4.23438
Q43.8438 -1.42188 31.7812 -1.42188
Q19.7344 -1.42188 13.25 4.23438
Q6.78125 9.90625 6.78125 20.5156
Q6.78125 27.4844 10.7812 32.3125
Q14.7969 37.1562 21.9219 38.8125
M18.3125 54.3906
Q18.3125 48.7344 21.8438 45.5625
Q25.3906 42.3906 31.7812 42.3906
Q38.1406 42.3906 41.7188 45.5625
Q45.3125 48.7344 45.3125 54.3906
Q45.3125 60.0625 41.7188 63.2344
Q38.1406 66.4062 31.7812 66.4062
Q25.3906 66.4062 21.8438 63.2344
Q18.3125 60.0625 18.3125 54.3906" id="DejaVuSans-38"/>
      </defs>
      <g transform="translate(435.4034375 400.26625)scale(0.12 -0.12)">
       <use xlink:href="#DejaVuSans-38"/>
       <use x="63.623046875" xlink:href="#DejaVuSans-30"/>
      </g>
     </g>
    </g>
    <g id="xtick_10">
     <g id="line2d_20">
      <g>
       <use style="stroke:#000000;stroke-linecap:butt;stroke-width:0.5;" x="491.833125" xlink:href="#m0012dd4eef" y="387.36"/>
      </g>
     </g>
     <g id="line2d_21">
      <g>
       <use style="stroke:#000000;stroke-linecap:butt;stroke-width:0.5;" x="491.833125" xlink:href="#m476344969c" y="41.76"/>
      </g>
     </g>
     <g id="text_10">
      <!-- 90 -->
      <defs>
       <path d="
M10.9844 1.51562
L10.9844 10.5
Q14.7031 8.73438 18.5 7.8125
Q22.3125 6.89062 25.9844 6.89062
Q35.75 6.89062 40.8906 13.4531
Q46.0469 20.0156 46.7812 33.4062
Q43.9531 29.2031 39.5938 26.9531
Q35.25 24.7031 29.9844 24.7031
Q19.0469 24.7031 12.6719 31.3125
Q6.29688 37.9375 6.29688 49.4219
Q6.29688 60.6406 12.9375 67.4219
Q19.5781 74.2188 30.6094 74.2188
Q43.2656 74.2188 49.9219 64.5156
Q56.5938 54.8281 56.5938 36.375
Q56.5938 19.1406 48.4062 8.85938
Q40.2344 -1.42188 26.4219 -1.42188
Q22.7031 -1.42188 18.8906 -0.6875
Q15.0938 0.046875 10.9844 1.51562
M30.6094 32.4219
Q37.25 32.4219 41.125 36.9531
Q45.0156 41.5 45.0156 49.4219
Q45.0156 57.2812 41.125 61.8438
Q37.25 66.4062 30.6094 66.4062
Q23.9688 66.4062 20.0938 61.8438
Q16.2188 57.2812 16.2188 49.4219
Q16.2188 41.5 20.0938 36.9531
Q23.9688 32.4219 30.6094 32.4219" id="DejaVuSans-39"/>
      </defs>
      <g transform="translate(484.974375 400.26625)scale(0.12 -0.12)">
       <use xlink:href="#DejaVuSans-39"/>
       <use x="63.623046875" xlink:href="#DejaVuSans-30"/>
      </g>
     </g>
    </g>
    <g id="text_11">
     <!-- ms -->
     <defs>
      <path d="
M52 44.1875
Q55.375 50.25 60.0625 53.125
Q64.75 56 71.0938 56
Q79.6406 56 84.2812 50.0156
Q88.9219 44.0469 88.9219 33.0156
L88.9219 0
L79.8906 0
L79.8906 32.7188
Q79.8906 40.5781 77.0938 44.375
Q74.3125 48.1875 68.6094 48.1875
Q61.625 48.1875 57.5625 43.5469
Q53.5156 38.9219 53.5156 30.9062
L53.5156 0
L44.4844 0
L44.4844 32.7188
Q44.4844 40.625 41.7031 44.4062
Q38.9219 48.1875 33.1094 48.1875
Q26.2188 48.1875 22.1562 43.5312
Q18.1094 38.875 18.1094 30.9062
L18.1094 0
L9.07812 0
L9.07812 54.6875
L18.1094 54.6875
L18.1094 46.1875
Q21.1875 51.2188 25.4844 53.6094
Q29.7812 56 35.6875 56
Q41.6562 56 45.8281 52.9688
Q50 49.9531 52 44.1875" id="DejaVuSans-6d"/>
      <path d="
M44.2812 53.0781
L44.2812 44.5781
Q40.4844 46.5312 36.375 47.5
Q32.2812 48.4844 27.875 48.4844
Q21.1875 48.4844 17.8438 46.4375
Q14.5 44.3906 14.5 40.2812
Q14.5 37.1562 16.8906 35.375
Q19.2812 33.5938 26.5156 31.9844
L29.5938 31.2969
Q39.1562 29.25 43.1875 25.5156
Q47.2188 21.7812 47.2188 15.0938
Q47.2188 7.46875 41.1875 3.01562
Q35.1562 -1.42188 24.6094 -1.42188
Q20.2188 -1.42188 15.4531 -0.5625
Q10.6875 0.296875 5.42188 2
L5.42188 11.2812
Q10.4062 8.6875 15.2344 7.39062
Q20.0625 6.10938 24.8125 6.10938
Q31.1562 6.10938 34.5625 8.28125
Q37.9844 10.4531 37.9844 14.4062
Q37.9844 18.0625 35.5156 20.0156
Q33.0625 21.9688 24.7031 23.7812
L21.5781 24.5156
Q13.2344 26.2656 9.51562 29.9062
Q5.8125 33.5469 5.8125 39.8906
Q5.8125 47.6094 11.2812 51.7969
Q16.75 56 26.8125 56
Q31.7812 56 36.1719 55.2656
Q40.5781 54.5469 44.2812 53.0781" id="DejaVuSans-73"/>
     </defs>
     <g transform="translate(260.5003125 412.156875)scale(0.12 -0.12)">
      <use xlink:href="#DejaVuSans-6d"/>
      <use x="97.412109375" xlink:href="#DejaVuSans-73"/>
     </g>
    </g>
   </g>
   <g id="matplotlib.axis_2">
    <g id="ytick_1">
     <g id="line2d_22">
      <defs>
       <path d="
M0 0
L4 0" id="me8a85f7bf6" style="stroke:#000000;stroke-linecap:butt;stroke-width:0.5;"/>
      </defs>
      <g>
       <use style="stroke:#000000;stroke-linecap:butt;stroke-width:0.5;" x="45.433125" xlink:href="#me8a85f7bf6" y="387.36"/>
      </g>
     </g>
     <g id="line2d_23">
      <defs>
       <path d="
M0 0
L-4 0" id="m1a32005dea" style="stroke:#000000;stroke-linecap:butt;stroke-width:0.5;"/>
      </defs>
      <g>
       <use style="stroke:#000000;stroke-linecap:butt;stroke-width:0.5;" x="491.833125" xlink:href="#m1a32005dea" y="387.36"/>
      </g>
     </g>
     <g id="text_12">
      <!-- 0.0 -->
      <defs>
       <path d="
M10.6875 12.4062
L21 12.4062
L21 0
L10.6875 0
z
" id="DejaVuSans-2e"/>
      </defs>
      <g transform="translate(23.9375 391.7278125)scale(0.12 -0.12)">
       <use xlink:href="#DejaVuSans-30"/>
       <use x="63.623046875" xlink:href="#DejaVuSans-2e"/>
       <use x="95.41015625" xlink:href="#DejaVuSans-30"/>
      </g>
     </g>
    </g>
    <g id="ytick_2">
     <g id="line2d_24">
      <g>
       <use style="stroke:#000000;stroke-linecap:butt;stroke-width:0.5;" x="45.433125" xlink:href="#me8a85f7bf6" y="318.24"/>
      </g>
     </g>
     <g id="line2d_25">
      <g>
       <use style="stroke:#000000;stroke-linecap:butt;stroke-width:0.5;" x="491.833125" xlink:href="#m1a32005dea" y="318.24"/>
      </g>
     </g>
     <g id="text_13">
      <!-- 0.2 -->
      <g transform="translate(24.3425 322.6078125)scale(0.12 -0.12)">
       <use xlink:href="#DejaVuSans-30"/>
       <use x="63.623046875" xlink:href="#DejaVuSans-2e"/>
       <use x="95.41015625" xlink:href="#DejaVuSans-32"/>
      </g>
     </g>
    </g>
    <g id="ytick_3">
     <g id="line2d_26">
      <g>
       <use style="stroke:#000000;stroke-linecap:butt;stroke-width:0.5;" x="45.433125" xlink:href="#me8a85f7bf6" y="249.12"/>
      </g>
     </g>
     <g id="line2d_27">
      <g>
       <use style="stroke:#000000;stroke-linecap:butt;stroke-width:0.5;" x="491.833125" xlink:href="#m1a32005dea" y="249.12"/>
      </g>
     </g>
     <g id="text_14">
      <!-- 0.4 -->
      <g transform="translate(23.81375 253.4878125)scale(0.12 -0.12)">
       <use xlink:href="#DejaVuSans-30"/>
       <use x="63.623046875" xlink:href="#DejaVuSans-2e"/>
       <use x="95.41015625" xlink:href="#DejaVuSans-34"/>
      </g>
     </g>
    </g>
    <g id="ytick_4">
     <g id="line2d_28">
      <g>
       <use style="stroke:#000000;stroke-linecap:butt;stroke-width:0.5;" x="45.433125" xlink:href="#me8a85f7bf6" y="180.0"/>
      </g>
     </g>
     <g id="line2d_29">
      <g>
       <use style="stroke:#000000;stroke-linecap:butt;stroke-width:0.5;" x="491.833125" xlink:href="#m1a32005dea" y="180.0"/>
      </g>
     </g>
     <g id="text_15">
      <!-- 0.6 -->
      <g transform="translate(23.89625 184.3678125)scale(0.12 -0.12)">
       <use xlink:href="#DejaVuSans-30"/>
       <use x="63.623046875" xlink:href="#DejaVuSans-2e"/>
       <use x="95.41015625" xlink:href="#DejaVuSans-36"/>
      </g>
     </g>
    </g>
    <g id="ytick_5">
     <g id="line2d_30">
      <g>
       <use style="stroke:#000000;stroke-linecap:butt;stroke-width:0.5;" x="45.433125" xlink:href="#me8a85f7bf6" y="110.88"/>
      </g>
     </g>
     <g id="line2d_31">
      <g>
       <use style="stroke:#000000;stroke-linecap:butt;stroke-width:0.5;" x="491.833125" xlink:href="#m1a32005dea" y="110.88"/>
      </g>
     </g>
     <g id="text_16">
      <!-- 0.8 -->
      <g transform="translate(23.961875 115.2478125)scale(0.12 -0.12)">
       <use xlink:href="#DejaVuSans-30"/>
       <use x="63.623046875" xlink:href="#DejaVuSans-2e"/>
       <use x="95.41015625" xlink:href="#DejaVuSans-38"/>
      </g>
     </g>
    </g>
    <g id="ytick_6">
     <g id="line2d_32">
      <g>
       <use style="stroke:#000000;stroke-linecap:butt;stroke-width:0.5;" x="45.433125" xlink:href="#me8a85f7bf6" y="41.76"/>
      </g>
     </g>
     <g id="line2d_33">
      <g>
       <use style="stroke:#000000;stroke-linecap:butt;stroke-width:0.5;" x="491.833125" xlink:href="#m1a32005dea" y="41.76"/>
      </g>
     </g>
     <g id="text_17">
      <!-- 1.0 -->
      <g transform="translate(24.464375 46.1278125)scale(0.12 -0.12)">
       <use xlink:href="#DejaVuSans-31"/>
       <use x="63.623046875" xlink:href="#DejaVuSans-2e"/>
       <use x="95.41015625" xlink:href="#DejaVuSans-30"/>
      </g>
     </g>
    </g>
    <g id="text_18">
     <!-- Cumulative probability -->
     <defs>
      <path d="
M56.2031 29.5938
L56.2031 25.2031
L14.8906 25.2031
Q15.4844 15.9219 20.4844 11.0625
Q25.4844 6.20312 34.4219 6.20312
Q39.5938 6.20312 44.4531 7.46875
Q49.3125 8.73438 54.1094 11.2812
L54.1094 2.78125
Q49.2656 0.734375 44.1875 -0.34375
Q39.1094 -1.42188 33.8906 -1.42188
Q20.7969 -1.42188 13.1562 6.1875
Q5.51562 13.8125 5.51562 26.8125
Q5.51562 40.2344 12.7656 48.1094
Q20.0156 56 32.3281 56
Q43.3594 56 49.7812 48.8906
Q56.2031 41.7969 56.2031 29.5938
M47.2188 32.2344
Q47.125 39.5938 43.0938 43.9844
Q39.0625 48.3906 32.4219 48.3906
Q24.9062 48.3906 20.3906 44.1406
Q15.875 39.8906 15.1875 32.1719
z
" id="DejaVuSans-65"/>
      <path d="
M30.6094 48.3906
Q23.3906 48.3906 19.1875 42.75
Q14.9844 37.1094 14.9844 27.2969
Q14.9844 17.4844 19.1562 11.8438
Q23.3438 6.20312 30.6094 6.20312
Q37.7969 6.20312 41.9844 11.8594
Q46.1875 17.5312 46.1875 27.2969
Q46.1875 37.0156 41.9844 42.7031
Q37.7969 48.3906 30.6094 48.3906
M30.6094 56
Q42.3281 56 49.0156 48.375
Q55.7188 40.7656 55.7188 27.2969
Q55.7188 13.875 49.0156 6.21875
Q42.3281 -1.42188 30.6094 -1.42188
Q18.8438 -1.42188 12.1719 6.21875
Q5.51562 13.875 5.51562 27.2969
Q5.51562 40.7656 12.1719 48.375
Q18.8438 56 30.6094 56" id="DejaVuSans-6f"/>
      <path d="
M48.6875 27.2969
Q48.6875 37.2031 44.6094 42.8438
Q40.5312 48.4844 33.4062 48.4844
Q26.2656 48.4844 22.1875 42.8438
Q18.1094 37.2031 18.1094 27.2969
Q18.1094 17.3906 22.1875 11.75
Q26.2656 6.10938 33.4062 6.10938
Q40.5312 6.10938 44.6094 11.75
Q48.6875 17.3906 48.6875 27.2969
M18.1094 46.3906
Q20.9531 51.2656 25.2656 53.625
Q29.5938 56 35.5938 56
Q45.5625 56 51.7812 48.0938
Q58.0156 40.1875 58.0156 27.2969
Q58.0156 14.4062 51.7812 6.48438
Q45.5625 -1.42188 35.5938 -1.42188
Q29.5938 -1.42188 25.2656 0.953125
Q20.9531 3.32812 18.1094 8.20312
L18.1094 0
L9.07812 0
L9.07812 75.9844
L18.1094 75.9844
z
" id="DejaVuSans-62"/>
      <path d="
M64.4062 67.2812
L64.4062 56.8906
Q59.4219 61.5312 53.7812 63.8125
Q48.1406 66.1094 41.7969 66.1094
Q29.2969 66.1094 22.6562 58.4688
Q16.0156 50.8281 16.0156 36.375
Q16.0156 21.9688 22.6562 14.3281
Q29.2969 6.6875 41.7969 6.6875
Q48.1406 6.6875 53.7812 8.98438
Q59.4219 11.2812 64.4062 15.9219
L64.4062 5.60938
Q59.2344 2.09375 53.4375 0.328125
Q47.6562 -1.42188 41.2188 -1.42188
Q24.6562 -1.42188 15.125 8.70312
Q5.60938 18.8438 5.60938 36.375
Q5.60938 53.9531 15.125 64.0781
Q24.6562 74.2188 41.2188 74.2188
Q47.75 74.2188 53.5312 72.4844
Q59.3281 70.75 64.4062 67.2812" id="DejaVuSans-43"/>
      <path d="
M9.42188 75.9844
L18.4062 75.9844
L18.4062 0
L9.42188 0
z
" id="DejaVuSans-6c"/>
      <path id="DejaVuSans-20"/>
      <path d="
M32.1719 -5.07812
Q28.375 -14.8438 24.75 -17.8125
Q21.1406 -20.7969 15.0938 -20.7969
L7.90625 -20.7969
L7.90625 -13.2812
L13.1875 -13.2812
Q16.8906 -13.2812 18.9375 -11.5156
Q21 -9.76562 23.4844 -3.21875
L25.0938 0.875
L2.98438 54.6875
L12.5 54.6875
L29.5938 11.9219
L46.6875 54.6875
L56.2031 54.6875
z
" id="DejaVuSans-79"/>
      <path d="
M9.42188 54.6875
L18.4062 54.6875
L18.4062 0
L9.42188 0
z

M9.42188 75.9844
L18.4062 75.9844
L18.4062 64.5938
L9.42188 64.5938
z
" id="DejaVuSans-69"/>
      <path d="
M8.5 21.5781
L8.5 54.6875
L17.4844 54.6875
L17.4844 21.9219
Q17.4844 14.1562 20.5 10.2656
Q23.5312 6.39062 29.5938 6.39062
Q36.8594 6.39062 41.0781 11.0312
Q45.3125 15.6719 45.3125 23.6875
L45.3125 54.6875
L54.2969 54.6875
L54.2969 0
L45.3125 0
L45.3125 8.40625
Q42.0469 3.42188 37.7188 1
Q33.4062 -1.42188 27.6875 -1.42188
Q18.2656 -1.42188 13.375 4.4375
Q8.5 10.2969 8.5 21.5781
M31.1094 56
z
" id="DejaVuSans-75"/>
      <path d="
M18.3125 70.2188
L18.3125 54.6875
L36.8125 54.6875
L36.8125 47.7031
L18.3125 47.7031
L18.3125 18.0156
Q18.3125 11.3281 20.1406 9.42188
Q21.9688 7.51562 27.5938 7.51562
L36.8125 7.51562
L36.8125 0
L27.5938 0
Q17.1875 0 13.2344 3.875
Q9.28125 7.76562 9.28125 18.0156
L9.28125 47.7031
L2.6875 47.7031
L2.6875 54.6875
L9.28125 54.6875
L9.28125 70.2188
z
" id="DejaVuSans-74"/>
      <path d="
M2.98438 54.6875
L12.5 54.6875
L29.5938 8.79688
L46.6875 54.6875
L56.2031 54.6875
L35.6875 0
L23.4844 0
z
" id="DejaVuSans-76"/>
      <path d="
M41.1094 46.2969
Q39.5938 47.1719 37.8125 47.5781
Q36.0312 48 33.8906 48
Q26.2656 48 22.1875 43.0469
Q18.1094 38.0938 18.1094 28.8125
L18.1094 0
L9.07812 0
L9.07812 54.6875
L18.1094 54.6875
L18.1094 46.1875
Q20.9531 51.1719 25.4844 53.5781
Q30.0312 56 36.5312 56
Q37.4531 56 38.5781 55.875
Q39.7031 55.7656 41.0625 55.5156
z
" id="DejaVuSans-72"/>
      <path d="
M18.1094 8.20312
L18.1094 -20.7969
L9.07812 -20.7969
L9.07812 54.6875
L18.1094 54.6875
L18.1094 46.3906
Q20.9531 51.2656 25.2656 53.625
Q29.5938 56 35.5938 56
Q45.5625 56 51.7812 48.0938
Q58.0156 40.1875 58.0156 27.2969
Q58.0156 14.4062 51.7812 6.48438
Q45.5625 -1.42188 35.5938 -1.42188
Q29.5938 -1.42188 25.2656 0.953125
Q20.9531 3.32812 18.1094 8.20312
M48.6875 27.2969
Q48.6875 37.2031 44.6094 42.8438
Q40.5312 48.4844 33.4062 48.4844
Q26.2656 48.4844 22.1875 42.8438
Q18.1094 37.2031 18.1094 27.2969
Q18.1094 17.3906 22.1875 11.75
Q26.2656 6.10938 33.4062 6.10938
Q40.5312 6.10938 44.6094 11.75
Q48.6875 17.3906 48.6875 27.2969" id="DejaVuSans-70"/>
      <path d="
M34.2812 27.4844
Q23.3906 27.4844 19.1875 25
Q14.9844 22.5156 14.9844 16.5
Q14.9844 11.7188 18.1406 8.90625
Q21.2969 6.10938 26.7031 6.10938
Q34.1875 6.10938 38.7031 11.4062
Q43.2188 16.7031 43.2188 25.4844
L43.2188 27.4844
z

M52.2031 31.2031
L52.2031 0
L43.2188 0
L43.2188 8.29688
Q40.1406 3.32812 35.5469 0.953125
Q30.9531 -1.42188 24.3125 -1.42188
Q15.9219 -1.42188 10.9531 3.29688
Q6 8.01562 6 15.9219
Q6 25.1406 12.1719 29.8281
Q18.3594 34.5156 30.6094 34.5156
L43.2188 34.5156
L43.2188 35.4062
Q43.2188 41.6094 39.1406 45
Q35.0625 48.3906 27.6875 48.3906
Q23 48.3906 18.5469 47.2656
Q14.1094 46.1406 10.0156 43.8906
L10.0156 52.2031
Q14.9375 54.1094 19.5781 55.0469
Q24.2188 56 28.6094 56
Q40.4844 56 46.3438 49.8438
Q52.2031 43.7031 52.2031 31.2031" id="DejaVuSans-61"/>
     </defs>
     <g transform="translate(18.81375 280.048125)rotate(-90.0)scale(0.12 -0.12)">
      <use xlink:href="#DejaVuSans-43"/>
      <use x="69.82421875" xlink:href="#DejaVuSans-75"/>
      <use x="133.203125" xlink:href="#DejaVuSans-6d"/>
      <use x="230.615234375" xlink:href="#DejaVuSans-75"/>
      <use x="293.994140625" xlink:href="#DejaVuSans-6c"/>
      <use x="321.77734375" xlink:href="#DejaVuSans-61"/>
      <use x="383.056640625" xlink:href="#DejaVuSans-74"/>
      <use x="422.265625" xlink:href="#DejaVuSans-69"/>
      <use x="450.048828125" xlink:href="#DejaVuSans-76"/>
      <use x="509.228515625" xlink:href="#DejaVuSans-65"/>
      <use x="570.751953125" xlink:href="#DejaVuSans-20"/>
      <use x="602.5390625" xlink:href="#DejaVuSans-70"/>
      <use x="666.015625" xlink:href="#DejaVuSans-72"/>
      <use x="704.87890625" xlink:href="#DejaVuSans-6f"/>
      <use x="766.060546875" xlink:href="#DejaVuSans-62"/>
      <use x="829.537109375" xlink:href="#DejaVuSans-61"/>
      <use x="890.81640625" xlink:href="#DejaVuSans-62"/>
      <use x="954.29296875" xlink:href="#DejaVuSans-69"/>
      <use x="982.076171875" xlink:href="#DejaVuSans-6c"/>
      <use x="1009.859375" xlink:href="#DejaVuSans-69"/>
      <use x="1037.64257812" xlink:href="#DejaVuSans-74"/>
      <use x="1076.8515625" xlink:href="#DejaVuSans-79"/>
     </g>
    </g>
   </g>
   <g id="patch_3">
    <path d="
M45.4331 41.76
L491.833 41.76" style="fill:none;stroke:#000000;"/>
   </g>
   <g id="patch_4">
    <path d="
M491.833 387.36
L491.833 41.76" style="fill:none;stroke:#000000;"/>
   </g>
   <g id="patch_5">
    <path d="
M45.4331 387.36
L491.833 387.36" style="fill:none;stroke:#000000;"/>
   </g>
   <g id="patch_6">
    <path d="
M45.4331 387.36
L45.4331 41.76" style="fill:none;stroke:#000000;"/>
   </g>
   <g id="legend_1">
    <g id="patch_7">
     <path d="
M500.761 59.4311
L583.069 59.4311
L583.069 41.76
L500.761 41.76
L500.761 59.4311
z
" style="fill:#ffffff;stroke:#000000;"/>
    </g>
    <g id="line2d_34">
     <path d="
M507.758 49.8552
L521.753 49.8552" style="fill:none;stroke:#0000ff;"/>
    </g>
    <g id="line2d_35"/>
    <g id="text_19">
     <!-- Ping (ms) -->
     <defs>
      <path d="
M45.4062 27.9844
Q45.4062 37.75 41.375 43.1094
Q37.3594 48.4844 30.0781 48.4844
Q22.8594 48.4844 18.8281 43.1094
Q14.7969 37.75 14.7969 27.9844
Q14.7969 18.2656 18.8281 12.8906
Q22.8594 7.51562 30.0781 7.51562
Q37.3594 7.51562 41.375 12.8906
Q45.4062 18.2656 45.4062 27.9844
M54.3906 6.78125
Q54.3906 -7.17188 48.1875 -13.9844
Q42 -20.7969 29.2031 -20.7969
Q24.4688 -20.7969 20.2656 -20.0938
Q16.0625 -19.3906 12.1094 -17.9219
L12.1094 -9.1875
Q16.0625 -11.3281 19.9219 -12.3438
Q23.7812 -13.375 27.7812 -13.375
Q36.625 -13.375 41.0156 -8.76562
Q45.4062 -4.15625 45.4062 5.17188
L45.4062 9.625
Q42.625 4.78125 38.2812 2.39062
Q33.9375 0 27.875 0
Q17.8281 0 11.6719 7.65625
Q5.51562 15.3281 5.51562 27.9844
Q5.51562 40.6719 11.6719 48.3281
Q17.8281 56 27.875 56
Q33.9375 56 38.2812 53.6094
Q42.625 51.2188 45.4062 46.3906
L45.4062 54.6875
L54.3906 54.6875
z
" id="DejaVuSans-67"/>
      <path d="
M31 75.875
Q24.4688 64.6562 21.2812 53.6562
Q18.1094 42.6719 18.1094 31.3906
Q18.1094 20.125 21.3125 9.0625
Q24.5156 -2 31 -13.1875
L23.1875 -13.1875
Q15.875 -1.70312 12.2344 9.375
Q8.59375 20.4531 8.59375 31.3906
Q8.59375 42.2812 12.2031 53.3125
Q15.8281 64.3594 23.1875 75.875
z
" id="DejaVuSans-28"/>
      <path d="
M19.6719 64.7969
L19.6719 37.4062
L32.0781 37.4062
Q38.9688 37.4062 42.7188 40.9688
Q46.4844 44.5312 46.4844 51.125
Q46.4844 57.6719 42.7188 61.2344
Q38.9688 64.7969 32.0781 64.7969
z

M9.8125 72.9062
L32.0781 72.9062
Q44.3438 72.9062 50.6094 67.3594
Q56.8906 61.8125 56.8906 51.125
Q56.8906 40.3281 50.6094 34.8125
Q44.3438 29.2969 32.0781 29.2969
L19.6719 29.2969
L19.6719 0
L9.8125 0
z
" id="DejaVuSans-50"/>
      <path d="
M8.01562 75.875
L15.8281 75.875
Q23.1406 64.3594 26.7812 53.3125
Q30.4219 42.2812 30.4219 31.3906
Q30.4219 20.4531 26.7812 9.375
Q23.1406 -1.70312 15.8281 -13.1875
L8.01562 -13.1875
Q14.5 -2 17.7031 9.0625
Q20.9062 20.125 20.9062 31.3906
Q20.9062 42.6719 17.7031 53.6562
Q14.5 64.6562 8.01562 75.875" id="DejaVuSans-29"/>
      <path d="
M54.8906 33.0156
L54.8906 0
L45.9062 0
L45.9062 32.7188
Q45.9062 40.4844 42.875 44.3281
Q39.8438 48.1875 33.7969 48.1875
Q26.5156 48.1875 22.3125 43.5469
Q18.1094 38.9219 18.1094 30.9062
L18.1094 0
L9.07812 0
L9.07812 54.6875
L18.1094 54.6875
L18.1094 46.1875
Q21.3438 51.125 25.7031 53.5625
Q30.0781 56 35.7969 56
Q45.2188 56 50.0469 50.1719
Q54.8906 44.3438 54.8906 33.0156" id="DejaVuSans-6e"/>
     </defs>
     <g transform="translate(532.748325 53.353798125)scale(0.09996 -0.09996)">
      <use xlink:href="#DejaVuSans-50"/>
      <use x="58.052734375" xlink:href="#DejaVuSans-69"/>
      <use x="85.8359375" xlink:href="#DejaVuSans-6e"/>
      <use x="149.21484375" xlink:href="#DejaVuSans-67"/>
      <use x="212.69140625" xlink:href="#DejaVuSans-20"/>
      <use x="244.478515625" xlink:href="#DejaVuSans-28"/>
      <use x="283.4921875" xlink:href="#DejaVuSans-6d"/>
      <use x="380.904296875" xlink:href="#DejaVuSans-73"/>
      <use x="433.00390625" xlink:href="#DejaVuSans-29"/>
     </g>
    </g>
   </g>
  </g>
  <g id="text_20">
   <!-- Realtime Response Under Load -->
   <defs>
    <path d="
M44.3906 34.1875
Q47.5625 33.1094 50.5625 29.5938
Q53.5625 26.0781 56.5938 19.9219
L66.6094 0
L56 0
L46.6875 18.7031
Q43.0625 26.0312 39.6719 28.4219
Q36.2812 30.8125 30.4219 30.8125
L19.6719 30.8125
L19.6719 0
L9.8125 0
L9.8125 72.9062
L32.0781 72.9062
Q44.5781 72.9062 50.7344 67.6719
Q56.8906 62.4531 56.8906 51.9062
Q56.8906 45.0156 53.6875 40.4688
Q50.4844 35.9375 44.3906 34.1875
M19.6719 64.7969
L19.6719 38.9219
L32.0781 38.9219
Q39.2031 38.9219 42.8438 42.2188
Q46.4844 45.5156 46.4844 51.9062
Q46.4844 58.2969 42.8438 61.5469
Q39.2031 64.7969 32.0781 64.7969
z
" id="DejaVuSans-52"/>
    <path d="
M45.4062 46.3906
L45.4062 75.9844
L54.3906 75.9844
L54.3906 0
L45.4062 0
L45.4062 8.20312
Q42.5781 3.32812 38.25 0.953125
Q33.9375 -1.42188 27.875 -1.42188
Q17.9688 -1.42188 11.7344 6.48438
Q5.51562 14.4062 5.51562 27.2969
Q5.51562 40.1875 11.7344 48.0938
Q17.9688 56 27.875 56
Q33.9375 56 38.25 53.625
Q42.5781 51.2656 45.4062 46.3906
M14.7969 27.2969
Q14.7969 17.3906 18.875 11.75
Q22.9531 6.10938 30.0781 6.10938
Q37.2031 6.10938 41.2969 11.75
Q45.4062 17.3906 45.4062 27.2969
Q45.4062 37.2031 41.2969 42.8438
Q37.2031 48.4844 30.0781 48.4844
Q22.9531 48.4844 18.875 42.8438
Q14.7969 37.2031 14.7969 27.2969" id="DejaVuSans-64"/>
    <path d="
M8.6875 72.9062
L18.6094 72.9062
L18.6094 28.6094
Q18.6094 16.8906 22.8438 11.7344
Q27.0938 6.59375 36.625 6.59375
Q46.0938 6.59375 50.3438 11.7344
Q54.5938 16.8906 54.5938 28.6094
L54.5938 72.9062
L64.5 72.9062
L64.5 27.3906
Q64.5 13.1406 57.4375 5.85938
Q50.3906 -1.42188 36.625 -1.42188
Q22.7969 -1.42188 15.7344 5.85938
Q8.6875 13.1406 8.6875 27.3906
z
" id="DejaVuSans-55"/>
    <path d="
M9.8125 72.9062
L19.6719 72.9062
L19.6719 8.29688
L55.1719 8.29688
L55.1719 0
L9.8125 0
z
" id="DejaVuSans-4c"/>
   </defs>
   <g transform="translate(152.88828125 17.8378125)scale(0.14 -0.14)">
    <use xlink:href="#DejaVuSans-52"/>
    <use x="64.982421875" xlink:href="#DejaVuSans-65"/>
    <use x="126.505859375" xlink:href="#DejaVuSans-61"/>
    <use x="187.78515625" xlink:href="#DejaVuSans-6c"/>
    <use x="215.568359375" xlink:href="#DejaVuSans-74"/>
    <use x="254.77734375" xlink:href="#DejaVuSans-69"/>
    <use x="282.560546875" xlink:href="#DejaVuSans-6d"/>
    <use x="379.97265625" xlink:href="#DejaVuSans-65"/>
    <use x="441.49609375" xlink:href="#DejaVuSans-20"/>
    <use x="473.283203125" xlink:href="#DejaVuSans-52"/>
    <use x="538.265625" xlink:href="#DejaVuSans-65"/>
    <use x="599.7890625" xlink:href="#DejaVuSans-73"/>
    <use x="651.888671875" xlink:href="#DejaVuSans-70"/>
    <use x="715.365234375" xlink:href="#DejaVuSans-6f"/>
    <use x="776.546875" xlink:href="#DejaVuSans-6e"/>
    <use x="839.92578125" xlink:href="#DejaVuSans-73"/>
    <use x="892.025390625" xlink:href="#DejaVuSans-65"/>
    <use x="953.548828125" xlink:href="#DejaVuSans-20"/>
    <use x="985.3359375" xlink:href="#DejaVuSans-55"/>
    <use x="1058.52929688" xlink:href="#DejaVuSans-6e"/>
    <use x="1121.90820312" xlink:href="#DejaVuSans-64"/>
    <use x="1185.38476562" xlink:href="#DejaVuSans-65"/>
    <use x="1246.90820312" xlink:href="#DejaVuSans-72"/>
    <use x="1288.02148438" xlink:href="#DejaVuSans-20"/>
    <use x="1319.80859375" xlink:href="#DejaVuSans-4c"/>
    <use x="1373.77148438" xlink:href="#DejaVuSans-6f"/>
    <use x="1434.953125" xlink:href="#DejaVuSans-61"/>
    <use x="1496.23242188" xlink:href="#DejaVuSans-64"/>
   </g>
   <!-- Ping CDF plot - Campground nfq_codel_shaped_20_8 -->
   <defs>
    <path d="
M4.89062 31.3906
L31.2031 31.3906
L31.2031 23.3906
L4.89062 23.3906
z
" id="DejaVuSans-2d"/>
    <path d="
M50.9844 -16.6094
L50.9844 -23.5781
L-0.984375 -23.5781
L-0.984375 -16.6094
z
" id="DejaVuSans-5f"/>
    <path d="
M19.6719 64.7969
L19.6719 8.10938
L31.5938 8.10938
Q46.6875 8.10938 53.6875 14.9375
Q60.6875 21.7812 60.6875 36.5312
Q60.6875 51.1719 53.6875 57.9844
Q46.6875 64.7969 31.5938 64.7969
z

M9.8125 72.9062
L30.0781 72.9062
Q51.2656 72.9062 61.1719 64.0938
Q71.0938 55.2812 71.0938 36.5312
Q71.0938 17.6719 61.125 8.82812
Q51.1719 0 30.0781 0
L9.8125 0
z
" id="DejaVuSans-44"/>
    <path d="
M9.8125 72.9062
L51.7031 72.9062
L51.7031 64.5938
L19.6719 64.5938
L19.6719 43.1094
L48.5781 43.1094
L48.5781 34.8125
L19.6719 34.8125
L19.6719 0
L9.8125 0
z
" id="DejaVuSans-46"/>
    <path d="
M54.8906 33.0156
L54.8906 0
L45.9062 0
L45.9062 32.7188
Q45.9062 40.4844 42.875 44.3281
Q39.8438 48.1875 33.7969 48.1875
Q26.5156 48.1875 22.3125 43.5469
Q18.1094 38.9219 18.1094 30.9062
L18.1094 0
L9.07812 0
L9.07812 75.9844
L18.1094 75.9844
L18.1094 46.1875
Q21.3438 51.125 25.7031 53.5625
Q30.0781 56 35.7969 56
Q45.2188 56 50.0469 50.1719
Q54.8906 44.3438 54.8906 33.0156" id="DejaVuSans-68"/>
    <path d="
M37.1094 75.9844
L37.1094 68.5
L28.5156 68.5
Q23.6875 68.5 21.7969 66.5469
Q19.9219 64.5938 19.9219 59.5156
L19.9219 54.6875
L34.7188 54.6875
L34.7188 47.7031
L19.9219 47.7031
L19.9219 0
L10.8906 0
L10.8906 47.7031
L2.29688 47.7031
L2.29688 54.6875
L10.8906 54.6875
L10.8906 58.5
Q10.8906 67.625 15.1406 71.7969
Q19.3906 75.9844 28.6094 75.9844
z
" id="DejaVuSans-66"/>
    <path d="
M14.7969 27.2969
Q14.7969 17.3906 18.875 11.75
Q22.9531 6.10938 30.0781 6.10938
Q37.2031 6.10938 41.2969 11.75
Q45.4062 17.3906 45.4062 27.2969
Q45.4062 37.2031 41.2969 42.8438
Q37.2031 48.4844 30.0781 48.4844
Q22.9531 48.4844 18.875 42.8438
Q14.7969 37.2031 14.7969 27.2969
M45.4062 8.20312
Q42.5781 3.32812 38.25 0.953125
Q33.9375 -1.42188 27.875 -1.42188
Q17.9688 -1.42188 11.7344 6.48438
Q5.51562 14.4062 5.51562 27.2969
Q5.51562 40.1875 11.7344 48.0938
Q17.9688 56 27.875 56
Q33.9375 56 38.25 53.625
Q42.5781 51.2656 45.4062 46.3906
L45.4062 54.6875
L54.3906 54.6875
L54.3906 -20.7969
L45.4062 -20.7969
z
" id="DejaVuSans-71"/>
    <path d="
M48.7812 52.5938
L48.7812 44.1875
Q44.9688 46.2969 41.1406 47.3438
Q37.3125 48.3906 33.4062 48.3906
Q24.6562 48.3906 19.8125 42.8438
Q14.9844 37.3125 14.9844 27.2969
Q14.9844 17.2812 19.8125 11.7344
Q24.6562 6.20312 33.4062 6.20312
Q37.3125 6.20312 41.1406 7.25
Q44.9688 8.29688 48.7812 10.4062
L48.7812 2.09375
Q45.0156 0.34375 40.9844 -0.53125
Q36.9688 -1.42188 32.4219 -1.42188
Q20.0625 -1.42188 12.7812 6.34375
Q5.51562 14.1094 5.51562 27.2969
Q5.51562 40.6719 12.8594 48.3281
Q20.2188 56 33.0156 56
Q37.1562 56 41.1094 55.1406
Q45.0625 54.2969 48.7812 52.5938" id="DejaVuSans-63"/>
   </defs>
   <g transform="translate(77.350625 34.0970625)scale(0.14 -0.14)">
    <use xlink:href="#DejaVuSans-50"/>
    <use x="58.052734375" xlink:href="#DejaVuSans-69"/>
    <use x="85.8359375" xlink:href="#DejaVuSans-6e"/>
    <use x="149.21484375" xlink:href="#DejaVuSans-67"/>
    <use x="212.69140625" xlink:href="#DejaVuSans-20"/>
    <use x="244.478515625" xlink:href="#DejaVuSans-43"/>
    <use x="314.302734375" xlink:href="#DejaVuSans-44"/>
    <use x="391.3046875" xlink:href="#DejaVuSans-46"/>
    <use x="448.82421875" xlink:href="#DejaVuSans-20"/>
    <use x="480.611328125" xlink:href="#DejaVuSans-70"/>
    <use x="544.087890625" xlink:href="#DejaVuSans-6c"/>
    <use x="571.87109375" xlink:href="#DejaVuSans-6f"/>
    <use x="633.052734375" xlink:href="#DejaVuSans-74"/>
    <use x="672.26171875" xlink:href="#DejaVuSans-20"/>
    <use x="704.048828125" xlink:href="#DejaVuSans-2d"/>
    <use x="740.1328125" xlink:href="#DejaVuSans-20"/>
    <use x="771.919921875" xlink:href="#DejaVuSans-43"/>
    <use x="841.744140625" xlink:href="#DejaVuSans-61"/>
    <use x="903.0234375" xlink:href="#DejaVuSans-6d"/>
    <use x="1000.43554688" xlink:href="#DejaVuSans-70"/>
    <use x="1063.91210938" xlink:href="#DejaVuSans-67"/>
    <use x="1127.38867188" xlink:href="#DejaVuSans-72"/>
    <use x="1166.25195312" xlink:href="#DejaVuSans-6f"/>
    <use x="1227.43359375" xlink:href="#DejaVuSans-75"/>
    <use x="1290.8125" xlink:href="#DejaVuSans-6e"/>
    <use x="1354.19140625" xlink:href="#DejaVuSans-64"/>
    <use x="1417.66796875" xlink:href="#DejaVuSans-20"/>
    <use x="1449.45507812" xlink:href="#DejaVuSans-6e"/>
    <use x="1512.83398438" xlink:href="#DejaVuSans-66"/>
    <use x="1548.0390625" xlink:href="#DejaVuSans-71"/>
    <use x="1611.515625" xlink:href="#DejaVuSans-5f"/>
    <use x="1661.515625" xlink:href="#DejaVuSans-63"/>
    <use x="1716.49609375" xlink:href="#DejaVuSans-6f"/>
    <use x="1777.67773438" xlink:href="#DejaVuSans-64"/>
    <use x="1841.15429688" xlink:href="#DejaVuSans-65"/>
    <use x="1902.67773438" xlink:href="#DejaVuSans-6c"/>
    <use x="1930.4609375" xlink:href="#DejaVuSans-5f"/>
    <use x="1980.4609375" xlink:href="#DejaVuSans-73"/>
    <use x="2032.56054688" xlink:href="#DejaVuSans-68"/>
    <use x="2095.93945312" xlink:href="#DejaVuSans-61"/>
    <use x="2157.21875" xlink:href="#DejaVuSans-70"/>
    <use x="2220.6953125" xlink:href="#DejaVuSans-65"/>
    <use x="2282.21875" xlink:href="#DejaVuSans-64"/>
    <use x="2345.6953125" xlink:href="#DejaVuSans-5f"/>
    <use x="2395.6953125" xlink:href="#DejaVuSans-32"/>
    <use x="2459.31835938" xlink:href="#DejaVuSans-30"/>
    <use x="2522.94140625" xlink:href="#DejaVuSans-5f"/>
    <use x="2572.94140625" xlink:href="#DejaVuSans-38"/>
   </g>
  </g>
  <g id="text_21">
   <!-- Local/remote: lupin-gw/snapon.lab.bufferbloat.net - Time: 2013-01-11 12:53:14.276158 - Length/step: 60s/0.20s -->
   <defs>
    <path d="
M11.7188 12.4062
L22.0156 12.4062
L22.0156 0
L11.7188 0
z

M11.7188 51.7031
L22.0156 51.7031
L22.0156 39.3125
L11.7188 39.3125
z
" id="DejaVuSans-3a"/>
    <path d="
M4.20312 54.6875
L13.1875 54.6875
L24.4219 12.0156
L35.5938 54.6875
L46.1875 54.6875
L57.4219 12.0156
L68.6094 54.6875
L77.5938 54.6875
L63.2812 0
L52.6875 0
L40.9219 44.8281
L29.1094 0
L18.5 0
z
" id="DejaVuSans-77"/>
    <path d="
M25.3906 72.9062
L33.6875 72.9062
L8.29688 -9.28125
L0 -9.28125
z
" id="DejaVuSans-2f"/>
    <path d="
M-0.296875 72.9062
L61.375 72.9062
L61.375 64.5938
L35.5 64.5938
L35.5 0
L25.5938 0
L25.5938 64.5938
L-0.296875 64.5938
z
" id="DejaVuSans-54"/>
   </defs>
   <g transform="translate(35.958125 426.73625)scale(0.08 -0.08)">
    <use xlink:href="#DejaVuSans-4c"/>
    <use x="53.962890625" xlink:href="#DejaVuSans-6f"/>
    <use x="115.14453125" xlink:href="#DejaVuSans-63"/>
    <use x="170.125" xlink:href="#DejaVuSans-61"/>
    <use x="231.404296875" xlink:href="#DejaVuSans-6c"/>
    <use x="259.1875" xlink:href="#DejaVuSans-2f"/>
    <use x="292.87890625" xlink:href="#DejaVuSans-72"/>
    <use x="331.7421875" xlink:href="#DejaVuSans-65"/>
    <use x="393.265625" xlink:href="#DejaVuSans-6d"/>
    <use x="490.677734375" xlink:href="#DejaVuSans-6f"/>
    <use x="551.859375" xlink:href="#DejaVuSans-74"/>
    <use x="591.068359375" xlink:href="#DejaVuSans-65"/>
    <use x="652.591796875" xlink:href="#DejaVuSans-3a"/>
    <use x="686.283203125" xlink:href="#DejaVuSans-20"/>
    <use x="718.0703125" xlink:href="#DejaVuSans-6c"/>
    <use x="745.853515625" xlink:href="#DejaVuSans-75"/>
    <use x="809.232421875" xlink:href="#DejaVuSans-70"/>
    <use x="872.708984375" xlink:href="#DejaVuSans-69"/>
    <use x="900.4921875" xlink:href="#DejaVuSans-6e"/>
    <use x="963.87109375" xlink:href="#DejaVuSans-2d"/>
    <use x="999.955078125" xlink:href="#DejaVuSans-67"/>
    <use x="1063.43164062" xlink:href="#DejaVuSans-77"/>
    <use x="1145.21875" xlink:href="#DejaVuSans-2f"/>
    <use x="1178.91015625" xlink:href="#DejaVuSans-73"/>
    <use x="1231.00976562" xlink:href="#DejaVuSans-6e"/>
    <use x="1294.38867188" xlink:href="#DejaVuSans-61"/>
    <use x="1355.66796875" xlink:href="#DejaVuSans-70"/>
    <use x="1419.14453125" xlink:href="#DejaVuSans-6f"/>
    <use x="1480.32617188" xlink:href="#DejaVuSans-6e"/>
    <use x="1543.70507812" xlink:href="#DejaVuSans-2e"/>
    <use x="1575.4921875" xlink:href="#DejaVuSans-6c"/>
    <use x="1603.27539062" xlink:href="#DejaVuSans-61"/>
    <use x="1664.5546875" xlink:href="#DejaVuSans-62"/>
    <use x="1728.03125" xlink:href="#DejaVuSans-2e"/>
    <use x="1759.81835938" xlink:href="#DejaVuSans-62"/>
    <use x="1823.29492188" xlink:href="#DejaVuSans-75"/>
    <use x="1886.67382812" xlink:href="#DejaVuSans-66"/>
    <use x="1921.87890625" xlink:href="#DejaVuSans-66"/>
    <use x="1957.08398438" xlink:href="#DejaVuSans-65"/>
    <use x="2018.60742188" xlink:href="#DejaVuSans-72"/>
    <use x="2059.72070312" xlink:href="#DejaVuSans-62"/>
    <use x="2123.19726562" xlink:href="#DejaVuSans-6c"/>
    <use x="2150.98046875" xlink:href="#DejaVuSans-6f"/>
    <use x="2212.16210938" xlink:href="#DejaVuSans-61"/>
    <use x="2273.44140625" xlink:href="#DejaVuSans-74"/>
    <use x="2312.65039062" xlink:href="#DejaVuSans-2e"/>
    <use x="2344.4375" xlink:href="#DejaVuSans-6e"/>
    <use x="2407.81640625" xlink:href="#DejaVuSans-65"/>
    <use x="2469.33984375" xlink:href="#DejaVuSans-74"/>
    <use x="2508.54882812" xlink:href="#DejaVuSans-20"/>
    <use x="2540.3359375" xlink:href="#DejaVuSans-2d"/>
    <use x="2576.41992188" xlink:href="#DejaVuSans-20"/>
    <use x="2608.20703125" xlink:href="#DejaVuSans-54"/>
    <use x="2666.16601562" xlink:href="#DejaVuSans-69"/>
    <use x="2693.94921875" xlink:href="#DejaVuSans-6d"/>
    <use x="2791.36132812" xlink:href="#DejaVuSans-65"/>
    <use x="2852.88476562" xlink:href="#DejaVuSans-3a"/>
    <use x="2886.57617188" xlink:href="#DejaVuSans-20"/>
    <use x="2918.36328125" xlink:href="#DejaVuSans-32"/>
    <use x="2981.98632812" xlink:href="#DejaVuSans-30"/>
    <use x="3045.609375" xlink:href="#DejaVuSans-31"/>
    <use x="3109.23242188" xlink:href="#DejaVuSans-33"/>
    <use x="3172.85546875" xlink:href="#DejaVuSans-2d"/>
    <use x="3208.93945312" xlink:href="#DejaVuSans-30"/>
    <use x="3272.5625" xlink:href="#DejaVuSans-31"/>
    <use x="3336.18554688" xlink:href="#DejaVuSans-2d"/>
    <use x="3372.26953125" xlink:href="#DejaVuSans-31"/>
    <use x="3435.89257812" xlink:href="#DejaVuSans-31"/>
    <use x="3499.515625" xlink:href="#DejaVuSans-20"/>
    <use x="3531.30273438" xlink:href="#DejaVuSans-31"/>
    <use x="3594.92578125" xlink:href="#DejaVuSans-32"/>
    <use x="3658.54882812" xlink:href="#DejaVuSans-3a"/>
    <use x="3692.24023438" xlink:href="#DejaVuSans-35"/>
    <use x="3755.86328125" xlink:href="#DejaVuSans-33"/>
    <use x="3819.48632812" xlink:href="#DejaVuSans-3a"/>
    <use x="3853.17773438" xlink:href="#DejaVuSans-31"/>
    <use x="3916.80078125" xlink:href="#DejaVuSans-34"/>
    <use x="3980.42382812" xlink:href="#DejaVuSans-2e"/>
    <use x="4012.2109375" xlink:href="#DejaVuSans-32"/>
    <use x="4075.83398438" xlink:href="#DejaVuSans-37"/>
    <use x="4139.45703125" xlink:href="#DejaVuSans-36"/>
    <use x="4203.08007812" xlink:href="#DejaVuSans-31"/>
    <use x="4266.703125" xlink:href="#DejaVuSans-35"/>
    <use x="4330.32617188" xlink:href="#DejaVuSans-38"/>
    <use x="4393.94921875" xlink:href="#DejaVuSans-20"/>
    <use x="4425.73632812" xlink:href="#DejaVuSans-2d"/>
    <use x="4461.8203125" xlink:href="#DejaVuSans-20"/>
    <use x="4493.60742188" xlink:href="#DejaVuSans-4c"/>
    <use x="4547.5703125" xlink:href="#DejaVuSans-65"/>
    <use x="4609.09375" xlink:href="#DejaVuSans-6e"/>
    <use x="4672.47265625" xlink:href="#DejaVuSans-67"/>
    <use x="4735.94921875" xlink:href="#DejaVuSans-74"/>
    <use x="4775.15820312" xlink:href="#DejaVuSans-68"/>
    <use x="4838.53710938" xlink:href="#DejaVuSans-2f"/>
    <use x="4872.22851562" xlink:href="#DejaVuSans-73"/>
    <use x="4924.328125" xlink:href="#DejaVuSans-74"/>
    <use x="4963.53710938" xlink:href="#DejaVuSans-65"/>
    <use x="5025.06054688" xlink:href="#DejaVuSans-70"/>
    <use x="5088.53710938" xlink:href="#DejaVuSans-3a"/>
    <use x="5122.22851562" xlink:href="#DejaVuSans-20"/>
    <use x="5154.015625" xlink:href="#DejaVuSans-36"/>
    <use x="5217.63867188" xlink:href="#DejaVuSans-30"/>
    <use x="5281.26171875" xlink:href="#DejaVuSans-73"/>
    <use x="5333.36132812" xlink:href="#DejaVuSans-2f"/>
    <use x="5367.05273438" xlink:href="#DejaVuSans-30"/>
    <use x="5430.67578125" xlink:href="#DejaVuSans-2e"/>
    <use x="5462.46289062" xlink:href="#DejaVuSans-32"/>
    <use x="5526.0859375" xlink:href="#DejaVuSans-30"/>
    <use x="5589.70898438" xlink:href="#DejaVuSans-73"/>
   </g>
  </g>
 </g>
 <defs>
  <clipPath id="p9e4b435858">
   <rect height="345.6" width="446.4" x="45.433125" y="41.76"/>
  </clipPath>
 </defs>
</svg>
